<?xml version="1.0" encoding="iso-8859-1"?>
<!-- Uploaded to: SVG Repo, www.svgrepo.com, Generator: SVG Repo Mixer Tools -->
<!DOCTYPE svg PUBLIC "-//W3C//DTD SVG 1.1//EN" "http://www.w3.org/Graphics/SVG/1.1/DTD/svg11.dtd">
<svg fill="#000000" height="800px" width="800px" version="1.1" id="Capa_1" xmlns="http://www.w3.org/2000/svg" xmlns:xlink="http://www.w3.org/1999/xlink" 
	 viewBox="0 0 297.411 297.411" xml:space="preserve">
<path d="M252.146,175.923h-88.44v-54.726c6.524-2.244,12.506-5.952,17.527-10.975c5.857-5.858,5.856-15.355-0.002-21.213
	c-5.069-5.069-12.86-5.742-18.663-2.037c-2.25-5.443-7.607-9.275-13.863-9.275c-5.962,0-11.097,3.488-13.515,8.526
	c-1.565-2.472-2.485-5.391-2.485-8.526c0-8.822,7.178-16,16-16c8.284,0,15-6.716,15-15V15c0-8.284-6.716-15-15-15s-15,6.716-15,15
	v19.208c-18.022,6.233-31,23.374-31,43.489c0,20.113,12.981,37.24,31,43.475v54.75H45.265c-8.284,0-15,6.716-15,15v91.488
	c0,8.284,6.716,15,15,15h206.882c8.284,0,15-6.716,15-15v-91.488C267.146,182.639,260.431,175.923,252.146,175.923z
	 M237.146,267.411H60.265v-61.488h176.882V267.411z"/>
</svg>